<?xml version="1.0" encoding="UTF-8"?>
<svg version="1.1" viewBox="0 0 2048 2048" width="512" height="512" xmlns="http://www.w3.org/2000/svg">
<path transform="translate(726,224)" d="m0 0h594l20 2 21 5 20 8 15 8 14 10 10 9 8 7 11 13 9 13 8 14 8 20 5 19 2 13 1 15v1284l-1 19-5 25-7 20-11 21-11 15-9 10-13 13-15 11-18 10-20 8-15 4-19 3-17 1h-576l-25-2-19-4-21-8-19-10-14-10-12-11-13-13-12-17-8-14-7-17-6-21-3-22v-1304l3-20 5-19 9-21 10-17 9-12 14-15 13-11 15-10 19-10 21-7 20-4zm-1 64-16 3-13 5-16 9-12 11-7 7-7 10-8 16-4 13-2 14v1297l3 17 6 16 8 13 8 10 9 9 15 10 13 6 14 4 17 2h584l20-3 16-6 14-8 13-11 9-10 8-13 6-14 3-11 2-16v-1289l-3-20-5-14-8-15-9-11-10-10-15-10-14-6-15-4-7-1h-54l-6 10-11 23-12 23-14 28-10 21-7 11-8 7-8 3-12 1h-253l-11-2-10-6-9-14-52-104-1-1zm191 0 2 6 15 29 14 28 1 1h215l3-3 25-50 5-11z" fill="#424242"/>
<path transform="translate(1756,670)" d="m0 0h15l12 6 13 13 11 14 12 15 12 17 13 20 14 24 10 19 11 24 11 28 10 31 7 27 7 36 4 32 1 12 1 25v21l-1 26-3 29-4 26-6 29-7 26-12 36-10 24-8 18-10 19-12 21-14 22-13 18-11 14-8 10-9 10-7 8-8 6-8 3h-14l-10-4-8-7-6-12-1-4v-10l3-9 8-11 11-12 8-10 15-20 15-23 14-25 8-16 9-20 10-26 9-30 6-26 5-28 3-30 1-20v-26l-2-31-4-30-7-34-9-31-9-25-11-25-8-16-10-19-13-21-12-17-13-17-12-14-8-10-5-10-1-10 3-12 6-9 10-7z" fill="#424242"/>
<path transform="translate(277,670)" d="m0 0h15l9 4 8 7 5 8 2 5v15l-6 12-11 13-10 12-12 16-18 27-12 21-12 23-12 28-10 28-9 33-5 25-3 19-3 35v47l3 33 5 31 7 29 7 23 8 23 11 25 10 21 14 24 12 19 14 19 9 11 11 13 8 10 5 10 1 4v8l-3 10-4 6-5 5-5 4-8 3h-15l-9-4-8-7-13-14-11-14-10-13-12-17-11-17-10-17-13-24-13-28-12-31-10-32-6-24-7-38-4-36-1-14v-51l3-34 4-28 7-34 9-32 10-29 11-26 12-25 10-19 14-23 13-19 14-19 14-17 9-10 4-5 9-6z" fill="#424242"/>
<path transform="translate(413,806)" d="m0 0h15l9 4 8 7 5 8 2 5v15l-6 12-12 16-8 11-12 21-10 21-8 22-7 28-3 21-1 12v33l3 24 5 23 6 20 10 24 11 21 12 18 10 13 9 13 3 9v8l-3 10-4 6-4 5-8 5-6 2h-15l-9-4-8-7-11-13-12-17-12-19-14-27-10-25-7-22-7-31-3-23-1-11v-37l2-23 4-24 6-25 10-29 10-23 12-22 16-24 10-13 8-10 9-6z" fill="#424242"/>
<path transform="translate(1620,806)" d="m0 0h15l12 6 9 9 14 19 13 20 13 24 11 25 10 31 6 27 4 29 1 15v23l-2 27-4 25-6 25-11 33-11 24-11 20-8 12-9 13-11 14-9 10-10 5-3 1h-14l-10-4-8-7-6-12-1-4v-10l3-9 8-11 11-14 14-22 9-17 10-25 7-24 4-20 3-29v-23l-3-28-5-24-6-20-8-20-8-16-10-18-12-17-10-13-5-10-1-10 3-12 6-9 10-7z" fill="#424242"/>
</svg>
